<mxfile host="65bd71144e">
    <diagram id="EsVaXnBHlEEKosVL50em" name="Page-1">
        <mxGraphModel dx="556" dy="467" grid="1" gridSize="10" guides="1" tooltips="1" connect="1" arrows="1" fold="1" page="1" pageScale="1" pageWidth="827" pageHeight="1169" math="0" shadow="0">
            <root>
                <mxCell id="0"/>
                <mxCell id="1" parent="0"/>
                <mxCell id="57" value="External payment" style="shape=umlFrame;whiteSpace=wrap;html=1;width=70;height=40;fontSize=14;" parent="1" vertex="1">
                    <mxGeometry y="330" width="1110" height="450" as="geometry"/>
                </mxCell>
                <mxCell id="70" value="Optional" style="shape=umlFrame;whiteSpace=wrap;html=1;fontSize=14;width=70;height=30;" parent="1" vertex="1">
                    <mxGeometry y="970" width="930" height="150" as="geometry"/>
                </mxCell>
                <mxCell id="46" value="Alt" style="shape=umlFrame;whiteSpace=wrap;html=1;fontSize=14;" parent="1" vertex="1">
                    <mxGeometry x="10" y="380" width="1090" height="390" as="geometry"/>
                </mxCell>
                <mxCell id="31" value="Optional" style="shape=umlFrame;whiteSpace=wrap;html=1;fontSize=14;width=70;height=30;" parent="1" vertex="1">
                    <mxGeometry y="170" width="760" height="150" as="geometry"/>
                </mxCell>
                <mxCell id="0xS0S5AWN3297I2jAuM9-66" value="Back-end Server" style="shape=umlLifeline;perimeter=lifelinePerimeter;whiteSpace=wrap;html=1;container=1;collapsible=0;recursiveResize=0;outlineConnect=0;fontSize=14;" parent="1" vertex="1">
                    <mxGeometry x="630" width="120" height="1130" as="geometry"/>
                </mxCell>
                <mxCell id="16" value="" style="html=1;points=[];perimeter=orthogonalPerimeter;fontSize=14;" parent="0xS0S5AWN3297I2jAuM9-66" vertex="1">
                    <mxGeometry x="55" y="180" width="10" height="130" as="geometry"/>
                </mxCell>
                <mxCell id="24" value="" style="html=1;points=[];perimeter=orthogonalPerimeter;fontSize=14;" parent="0xS0S5AWN3297I2jAuM9-66" vertex="1">
                    <mxGeometry x="55" y="820" width="10" height="290" as="geometry"/>
                </mxCell>
                <mxCell id="29" value="" style="html=1;points=[];perimeter=orthogonalPerimeter;fontSize=14;" parent="0xS0S5AWN3297I2jAuM9-66" vertex="1">
                    <mxGeometry x="60" y="1060" width="10" height="40" as="geometry"/>
                </mxCell>
                <mxCell id="30" value="&lt;span style=&quot;text-align: center ; font-size: 14px&quot;&gt;&lt;font face=&quot;Lucida Console&quot; style=&quot;font-size: 14px&quot;&gt;[Authenticated]&lt;br style=&quot;font-size: 14px&quot;&gt;accumulatePoints()&lt;/font&gt;&lt;/span&gt;" style="edgeStyle=orthogonalEdgeStyle;html=1;align=left;spacingLeft=2;endArrow=block;rounded=0;fontSize=14;endSize=10;" parent="0xS0S5AWN3297I2jAuM9-66" source="24" target="29" edge="1">
                    <mxGeometry x="0.0435" relative="1" as="geometry">
                        <mxPoint x="65" y="1020" as="sourcePoint"/>
                        <Array as="points">
                            <mxPoint x="110" y="1030"/>
                            <mxPoint x="110" y="1060"/>
                        </Array>
                        <mxPoint as="offset"/>
                    </mxGeometry>
                </mxCell>
                <mxCell id="0xS0S5AWN3297I2jAuM9-64" value="&lt;span style=&quot;font-family: &amp;quot;lucida console&amp;quot;; font-size: 14px;&quot;&gt;[Invalid] Message(Failed)&lt;/span&gt;" style="edgeStyle=none;rounded=0;orthogonalLoop=1;jettySize=auto;html=1;startArrow=none;startFill=0;endArrow=open;endFill=0;dashed=1;fontSize=14;endSize=10;" parent="1" target="17" edge="1" source="41">
                    <mxGeometry x="0.2271" relative="1" as="geometry">
                        <mxPoint x="1025" y="686" as="sourcePoint"/>
                        <mxPoint x="397.5" y="686.0000000000002" as="targetPoint"/>
                        <Array as="points">
                            <mxPoint x="460" y="710"/>
                        </Array>
                        <mxPoint as="offset"/>
                    </mxGeometry>
                </mxCell>
                <mxCell id="gZEta6P0kwbHWT-XyPAT-22" value="&lt;span style=&quot;font-family: &amp;quot;lucida console&amp;quot;; font-size: 14px;&quot;&gt;[Valid] Message(OK)&lt;/span&gt;" style="edgeStyle=none;rounded=0;orthogonalLoop=1;jettySize=auto;html=1;startArrow=none;startFill=0;endArrow=open;endFill=0;dashed=1;fontSize=14;endSize=10;" parent="1" target="17" edge="1" source="41">
                    <mxGeometry x="0.2372" relative="1" as="geometry">
                        <mxPoint x="1025" y="686" as="sourcePoint"/>
                        <mxPoint x="397.5" y="716.0000000000002" as="targetPoint"/>
                        <Array as="points">
                            <mxPoint x="970" y="710"/>
                            <mxPoint x="920" y="750"/>
                        </Array>
                        <mxPoint as="offset"/>
                    </mxGeometry>
                </mxCell>
                <mxCell id="43" value="&lt;span style=&quot;background-color: rgb(255, 255, 255); font-size: 14px;&quot;&gt;[choose Digital wallet payment]&lt;/span&gt;" style="text;html=1;align=center;verticalAlign=middle;resizable=0;points=[];autosize=1;strokeColor=none;fontSize=14;" parent="1" vertex="1">
                    <mxGeometry x="95" y="575" width="210" height="20" as="geometry"/>
                </mxCell>
                <mxCell id="59" value="creditCardInfo" style="html=1;verticalAlign=bottom;endArrow=open;dashed=1;endSize=10;fontSize=14;fontFamily=Lucida Console;labelBackgroundColor=#ffffff;" parent="1" target="17" edge="1" source="xFDVyft1GGpR64SZNUxC-1">
                    <mxGeometry x="-0.0085" y="-10" relative="1" as="geometry">
                        <mxPoint x="95" y="440" as="sourcePoint"/>
                        <mxPoint x="387.5" y="440" as="targetPoint"/>
                        <Array as="points">
                            <mxPoint x="320" y="460"/>
                        </Array>
                        <mxPoint as="offset"/>
                    </mxGeometry>
                </mxCell>
                <mxCell id="60" value="&lt;span style=&quot;font-family: &amp;quot;lucida console&amp;quot; ; font-size: 14px&quot;&gt;digitalWalletInfo&lt;/span&gt;" style="html=1;verticalAlign=bottom;endArrow=open;dashed=1;endSize=10;strokeWidth=1;fontSize=14;" parent="1" target="17" edge="1" source="xFDVyft1GGpR64SZNUxC-1">
                    <mxGeometry x="-0.0085" y="-10" relative="1" as="geometry">
                        <mxPoint x="95" y="650" as="sourcePoint"/>
                        <mxPoint x="387.5" y="650" as="targetPoint"/>
                        <Array as="points">
                            <mxPoint x="330" y="660"/>
                        </Array>
                        <mxPoint as="offset"/>
                    </mxGeometry>
                </mxCell>
                <mxCell id="61" value="validate(creditCardInfo)" style="html=1;verticalAlign=bottom;endArrow=block;rounded=0;fontSize=14;fontFamily=Lucida Console;endSize=10;" parent="1" source="17" target="40" edge="1">
                    <mxGeometry width="80" relative="1" as="geometry">
                        <mxPoint x="397.5" y="450" as="sourcePoint"/>
                        <mxPoint x="750" y="480" as="targetPoint"/>
                        <Array as="points">
                            <mxPoint x="490" y="480"/>
                        </Array>
                    </mxGeometry>
                </mxCell>
                <mxCell id="0xS0S5AWN3297I2jAuM9-30" value="&lt;span style=&quot;font-family: &amp;quot;lucida console&amp;quot;; font-size: 14px;&quot;&gt;getDigitalWalletInfo()&lt;/span&gt;" style="rounded=0;orthogonalLoop=1;jettySize=auto;html=1;startArrow=none;startFill=0;endArrow=block;endFill=1;fontSize=14;endSize=10;" parent="1" source="17" edge="1" target="xFDVyft1GGpR64SZNUxC-1">
                    <mxGeometry relative="1" as="geometry">
                        <mxPoint x="95" y="610" as="targetPoint"/>
                        <mxPoint x="387.5" y="610" as="sourcePoint"/>
                        <Array as="points">
                            <mxPoint x="310" y="620"/>
                        </Array>
                    </mxGeometry>
                </mxCell>
                <mxCell id="0xS0S5AWN3297I2jAuM9-8" value="Purchase page" style="shape=umlLifeline;perimeter=lifelinePerimeter;whiteSpace=wrap;html=1;container=1;collapsible=0;recursiveResize=0;outlineConnect=0;fontSize=14;" parent="1" vertex="1">
                    <mxGeometry x="320" width="145" height="1130" as="geometry"/>
                </mxCell>
                <mxCell id="17" value="" style="html=1;points=[];perimeter=orthogonalPerimeter;fontSize=14;" parent="0xS0S5AWN3297I2jAuM9-8" vertex="1">
                    <mxGeometry x="67.5" y="80" width="10" height="870" as="geometry"/>
                </mxCell>
                <mxCell id="45" value="[&lt;span style=&quot;font-size: 14px;&quot;&gt;choose Credit card payment]&lt;/span&gt;" style="text;html=1;align=center;verticalAlign=middle;resizable=0;points=[];autosize=1;strokeColor=none;fontSize=14;labelBackgroundColor=#ffffff;" parent="1" vertex="1">
                    <mxGeometry x="94" y="380" width="200" height="20" as="geometry"/>
                </mxCell>
                <mxCell id="0xS0S5AWN3297I2jAuM9-11" value="&lt;font face=&quot;Lucida Console&quot; style=&quot;font-size: 14px;&quot;&gt;viewInvoice()&lt;/font&gt;" style="rounded=0;orthogonalLoop=1;jettySize=auto;html=1;endArrow=block;endFill=1;startArrow=none;startFill=0;fontSize=14;endSize=10;" parent="1" source="xFDVyft1GGpR64SZNUxC-1" target="17" edge="1">
                    <mxGeometry x="0.0085" y="-1" relative="1" as="geometry">
                        <mxPoint x="387.5" y="85" as="targetPoint"/>
                        <mxPoint x="120" y="85" as="sourcePoint"/>
                        <mxPoint as="offset"/>
                        <Array as="points">
                            <mxPoint x="310" y="100"/>
                        </Array>
                    </mxGeometry>
                </mxCell>
                <mxCell id="0xS0S5AWN3297I2jAuM9-45" value="[Successfully validated]&lt;br style=&quot;font-size: 14px&quot;&gt;purchase()&amp;nbsp;" style="edgeStyle=none;rounded=0;orthogonalLoop=1;jettySize=auto;html=1;startArrow=none;startFill=0;endArrow=block;endFill=1;fontSize=14;endSize=10;fontFamily=Lucida Console;" parent="1" source="xFDVyft1GGpR64SZNUxC-1" target="17" edge="1">
                    <mxGeometry x="-0.027" relative="1" as="geometry">
                        <mxPoint x="95" y="770" as="sourcePoint"/>
                        <mxPoint x="387.5" y="770" as="targetPoint"/>
                        <Array as="points">
                            <mxPoint x="340" y="810"/>
                        </Array>
                        <mxPoint as="offset"/>
                    </mxGeometry>
                </mxCell>
                <mxCell id="gZEta6P0kwbHWT-XyPAT-6" value="&lt;span style=&quot;font-family: &amp;quot;lucida console&amp;quot;; font-size: 14px;&quot;&gt;[Authenticated]&lt;/span&gt;&lt;br style=&quot;font-family: &amp;quot;lucida console&amp;quot;; font-size: 14px;&quot;&gt;&lt;span style=&quot;font-family: &amp;quot;lucida console&amp;quot;; font-size: 14px;&quot;&gt;payByPoint(Points)&lt;/span&gt;" style="edgeStyle=none;rounded=0;orthogonalLoop=1;jettySize=auto;html=1;fontSize=14;endArrow=block;endFill=1;endSize=10;" parent="1" target="17" edge="1" source="xFDVyft1GGpR64SZNUxC-1">
                    <mxGeometry relative="1" as="geometry">
                        <Array as="points">
                            <mxPoint x="350" y="260"/>
                        </Array>
                        <mxPoint x="387.5" y="229" as="targetPoint"/>
                        <mxPoint x="95" y="229" as="sourcePoint"/>
                    </mxGeometry>
                </mxCell>
                <mxCell id="0xS0S5AWN3297I2jAuM9-10" value="Customer" style="shape=umlLifeline;participant=umlActor;perimeter=lifelinePerimeter;whiteSpace=wrap;html=1;container=1;collapsible=0;recursiveResize=0;verticalAlign=top;spacingTop=36;outlineConnect=0;fontSize=14;" parent="1" vertex="1">
                    <mxGeometry x="80" width="20" height="1130" as="geometry"/>
                </mxCell>
                <mxCell id="H4JG7rDhMhPvmTt1vxnm-16" value="Bank System" style="shape=umlLifeline;perimeter=lifelinePerimeter;whiteSpace=wrap;html=1;container=1;collapsible=0;recursiveResize=0;outlineConnect=0;fontSize=14;" parent="1" vertex="1">
                    <mxGeometry x="827" width="120" height="790" as="geometry"/>
                </mxCell>
                <mxCell id="40" value="" style="html=1;points=[];perimeter=orthogonalPerimeter;fontSize=14;" parent="H4JG7rDhMhPvmTt1vxnm-16" vertex="1">
                    <mxGeometry x="55" y="440" width="10" height="120" as="geometry"/>
                </mxCell>
                <mxCell id="0xS0S5AWN3297I2jAuM9-32" value="Digital Wallet System" style="shape=umlLifeline;perimeter=lifelinePerimeter;whiteSpace=wrap;html=1;container=1;collapsible=0;recursiveResize=0;outlineConnect=0;fontSize=14;" parent="1" vertex="1">
                    <mxGeometry x="970" width="120" height="790" as="geometry"/>
                </mxCell>
                <mxCell id="41" value="" style="html=1;points=[];perimeter=orthogonalPerimeter;fontSize=14;" parent="0xS0S5AWN3297I2jAuM9-32" vertex="1">
                    <mxGeometry x="55" y="620" width="10" height="140" as="geometry"/>
                </mxCell>
                <mxCell id="gZEta6P0kwbHWT-XyPAT-16" value="[choose pay by point]" style="text;html=1;align=center;verticalAlign=middle;resizable=0;points=[];autosize=1;strokeColor=none;fillColor=none;fontSize=14;" parent="1" vertex="1">
                    <mxGeometry x="94" y="170" width="150" height="20" as="geometry"/>
                </mxCell>
                <mxCell id="auK02p0XqwQrwLWtQNWY-16" value="&lt;span style=&quot;font-family: &amp;quot;lucida console&amp;quot;; font-size: 14px;&quot;&gt;[Invalid]&amp;nbsp;&lt;/span&gt;&lt;span style=&quot;font-family: &amp;quot;lucida console&amp;quot;; font-size: 14px;&quot;&gt;message(Failed)&lt;/span&gt;" style="rounded=0;orthogonalLoop=1;jettySize=auto;html=1;dashed=1;endArrow=open;endFill=0;fontSize=14;endSize=10;" parent="1" source="40" target="17" edge="1">
                    <mxGeometry relative="1" as="geometry">
                        <mxPoint x="730" y="460" as="sourcePoint"/>
                        <mxPoint x="397.5" y="480" as="targetPoint"/>
                        <Array as="points">
                            <mxPoint x="640" y="515"/>
                        </Array>
                    </mxGeometry>
                </mxCell>
                <mxCell id="gZEta6P0kwbHWT-XyPAT-28" value="&lt;span style=&quot;font-family: &amp;#34;lucida console&amp;#34;&quot;&gt;[Failed Transaction]&lt;/span&gt;&lt;br style=&quot;font-family: &amp;#34;lucida console&amp;#34;&quot;&gt;&lt;span style=&quot;font-family: &amp;#34;lucida console&amp;#34;&quot;&gt;message(Failed)&lt;/span&gt;&lt;font face=&quot;Lucida Console&quot; style=&quot;font-size: 14px&quot;&gt;&lt;br&gt;&lt;/font&gt;" style="html=1;verticalAlign=bottom;endArrow=open;dashed=1;endSize=10;rounded=0;fontSize=14;" parent="1" source="24" target="17" edge="1">
                    <mxGeometry x="0.1738" y="20" relative="1" as="geometry">
                        <mxPoint x="1240" y="860" as="sourcePoint"/>
                        <mxPoint x="397.5" y="890" as="targetPoint"/>
                        <Array as="points">
                            <mxPoint x="680" y="880"/>
                            <mxPoint x="660" y="935"/>
                        </Array>
                        <mxPoint as="offset"/>
                    </mxGeometry>
                </mxCell>
                <mxCell id="5BrfaUf6oUBGYmDF4iaM-1" value="&lt;font face=&quot;Lucida Console&quot; style=&quot;font-size: 14px;&quot;&gt;logTransaction()&lt;/font&gt;" style="html=1;verticalAlign=bottom;endArrow=block;rounded=0;fontSize=14;endSize=10;" parent="1" source="17" target="24" edge="1">
                    <mxGeometry x="-0.0973" y="-10" width="80" relative="1" as="geometry">
                        <mxPoint x="397.5" y="780" as="sourcePoint"/>
                        <mxPoint x="1250" y="690" as="targetPoint"/>
                        <Array as="points">
                            <mxPoint x="640" y="830"/>
                        </Array>
                        <mxPoint as="offset"/>
                    </mxGeometry>
                </mxCell>
                <mxCell id="xFDVyft1GGpR64SZNUxC-1" value="" style="html=1;points=[];perimeter=orthogonalPerimeter;fontSize=14;" parent="1" vertex="1">
                    <mxGeometry x="85" y="80" width="10" height="1030" as="geometry"/>
                </mxCell>
                <mxCell id="5" value="&lt;span style=&quot;font-family: &amp;quot;lucida console&amp;quot;; font-size: 14px;&quot;&gt;[Valid] message(OK)&lt;/span&gt;" style="html=1;verticalAlign=bottom;endArrow=open;dashed=1;endSize=10;fontSize=14;rounded=0;" parent="1" source="40" target="17" edge="1">
                    <mxGeometry x="0.035" y="10" relative="1" as="geometry">
                        <mxPoint x="743" y="520" as="sourcePoint"/>
                        <mxPoint x="397.5" y="520" as="targetPoint"/>
                        <Array as="points">
                            <mxPoint x="840" y="515"/>
                            <mxPoint x="780" y="550"/>
                        </Array>
                        <mxPoint as="offset"/>
                    </mxGeometry>
                </mxCell>
                <mxCell id="auK02p0XqwQrwLWtQNWY-29" value="&lt;span style=&quot;color: rgb(0 , 0 , 0) ; font-family: &amp;#34;lucida console&amp;#34; ; font-size: 14px ; font-style: normal ; font-weight: 400 ; letter-spacing: normal ; text-align: center ; text-indent: 0px ; text-transform: none ; word-spacing: 0px ; display: inline ; float: none&quot;&gt;validate(digitalWalletInfo)&lt;/span&gt;" style="edgeStyle=none;rounded=0;orthogonalLoop=1;jettySize=auto;html=1;startArrow=none;startFill=0;endArrow=block;endFill=1;fontSize=14;endSize=9;spacing=2;" parent="1" source="17" target="41" edge="1">
                    <mxGeometry relative="1" as="geometry">
                        <mxPoint x="397.5" y="660" as="sourcePoint"/>
                        <mxPoint x="950" y="580" as="targetPoint"/>
                        <Array as="points">
                            <mxPoint x="540" y="670"/>
                        </Array>
                    </mxGeometry>
                </mxCell>
                <mxCell id="66" value="[Successful Transaction]&lt;br&gt;message(OK)" style="html=1;verticalAlign=bottom;endArrow=open;dashed=1;endSize=10;fontFamily=Lucida Console;strokeWidth=1;fontSize=14;" parent="1" source="24" target="17" edge="1">
                    <mxGeometry x="-0.027" y="20" relative="1" as="geometry">
                        <mxPoint x="1200" y="810" as="sourcePoint"/>
                        <mxPoint x="397.5" y="830" as="targetPoint"/>
                        <Array as="points">
                            <mxPoint x="550" y="880"/>
                        </Array>
                        <mxPoint as="offset"/>
                    </mxGeometry>
                </mxCell>
                <mxCell id="68" value="&lt;span style=&quot;font-family: &amp;quot;lucida console&amp;quot;; font-size: 14px;&quot;&gt;[Unauthenticated]&amp;nbsp;&lt;/span&gt;&lt;span style=&quot;font-family: &amp;quot;lucida console&amp;quot;; font-size: 14px;&quot;&gt;authenticate()&lt;/span&gt;" style="edgeStyle=none;rounded=0;orthogonalLoop=1;jettySize=auto;html=1;fontSize=14;endArrow=block;endFill=1;endSize=10;" parent="1" source="xFDVyft1GGpR64SZNUxC-1" target="16" edge="1">
                    <mxGeometry relative="1" as="geometry">
                        <Array as="points">
                            <mxPoint x="366" y="210"/>
                        </Array>
                        <mxPoint x="1240" y="210" as="targetPoint"/>
                        <mxPoint x="95" y="170" as="sourcePoint"/>
                    </mxGeometry>
                </mxCell>
                <mxCell id="72" value="&lt;span style=&quot;font-family: &amp;quot;lucida console&amp;quot;; font-size: 14px;&quot;&gt;[Unauthenticated]&amp;nbsp;&lt;/span&gt;&lt;span style=&quot;font-family: &amp;quot;lucida console&amp;quot;; font-size: 14px;&quot;&gt;authenticate()&lt;/span&gt;" style="edgeStyle=none;rounded=0;orthogonalLoop=1;jettySize=auto;html=1;fontSize=14;endArrow=block;endFill=1;endSize=10;" parent="1" target="24" edge="1" source="xFDVyft1GGpR64SZNUxC-1">
                    <mxGeometry relative="1" as="geometry">
                        <Array as="points">
                            <mxPoint x="376" y="1020"/>
                        </Array>
                        <mxPoint x="705" y="1000" as="targetPoint"/>
                        <mxPoint x="95" y="1000" as="sourcePoint"/>
                    </mxGeometry>
                </mxCell>
                <mxCell id="58" value="[invoice is not fully paid&lt;span style=&quot;font-size: 14px;&quot;&gt;]&lt;/span&gt;" style="text;html=1;align=center;verticalAlign=middle;resizable=0;points=[];autosize=1;strokeColor=none;fontSize=14;labelBackgroundColor=#ffffff;" parent="1" vertex="1">
                    <mxGeometry x="96" y="332" width="160" height="20" as="geometry"/>
                </mxCell>
                <mxCell id="38" value="&lt;span style=&quot;font-size: 14px;&quot;&gt;getCreditCardInfo()&lt;/span&gt;" style="rounded=0;orthogonalLoop=1;jettySize=auto;html=1;startArrow=none;startFill=0;endArrow=block;endFill=1;fontSize=14;endSize=10;fontFamily=Lucida Console;labelBackgroundColor=#ffffff;" parent="1" source="17" edge="1" target="xFDVyft1GGpR64SZNUxC-1">
                    <mxGeometry relative="1" as="geometry">
                        <mxPoint x="95" y="410" as="targetPoint"/>
                        <Array as="points">
                            <mxPoint x="360" y="430"/>
                        </Array>
                        <mxPoint x="387.5" y="410" as="sourcePoint"/>
                    </mxGeometry>
                </mxCell>
                <mxCell id="56" value="updateInvoice()" style="html=1;align=left;spacingLeft=2;endArrow=block;rounded=0;fontFamily=Lucida Console;fontSize=14;endFill=1;strokeWidth=1;endSize=10;" parent="1" source="16" target="17" edge="1">
                    <mxGeometry x="0.4454" relative="1" as="geometry">
                        <mxPoint x="685" y="266" as="sourcePoint"/>
                        <Array as="points">
                            <mxPoint x="650" y="300"/>
                        </Array>
                        <mxPoint x="397.5" y="266" as="targetPoint"/>
                        <mxPoint as="offset"/>
                    </mxGeometry>
                </mxCell>
                <mxCell id="74" value="updatePoint()" style="html=1;verticalAlign=bottom;endArrow=block;endSize=10;fontFamily=Lucida Console;fontSize=14;" parent="1" source="17" target="16" edge="1">
                    <mxGeometry x="-0.042" y="-10" width="80" relative="1" as="geometry">
                        <mxPoint x="397.5" y="236" as="sourcePoint"/>
                        <mxPoint x="685" y="236" as="targetPoint"/>
                        <Array as="points">
                            <mxPoint x="500" y="270"/>
                        </Array>
                        <mxPoint as="offset"/>
                    </mxGeometry>
                </mxCell>
                <mxCell id="48" value="" style="endArrow=none;dashed=1;html=1;strokeWidth=1;fontSize=14;endSize=10;rounded=0;exitX=-0.001;exitY=0.493;exitDx=0;exitDy=0;exitPerimeter=0;entryX=1;entryY=0.506;entryDx=0;entryDy=0;entryPerimeter=0;" parent="1" source="46" target="46" edge="1">
                    <mxGeometry width="50" height="50" relative="1" as="geometry">
                        <mxPoint x="11" y="570" as="sourcePoint"/>
                        <mxPoint x="1100" y="568" as="targetPoint"/>
                        <Array as="points"/>
                    </mxGeometry>
                </mxCell>
                <mxCell id="75" value="invoiceUI" style="html=1;verticalAlign=bottom;endArrow=open;endFill=0;dashed=1;endSize=10;fontFamily=Lucida Console;fontSize=14;" edge="1" parent="1" source="17" target="xFDVyft1GGpR64SZNUxC-1">
                    <mxGeometry x="0.0085" y="10" width="160" relative="1" as="geometry">
                        <mxPoint x="180" y="100" as="sourcePoint"/>
                        <mxPoint x="340" y="100" as="targetPoint"/>
                        <Array as="points">
                            <mxPoint x="310" y="140"/>
                        </Array>
                        <mxPoint as="offset"/>
                    </mxGeometry>
                </mxCell>
                <mxCell id="76" value="&lt;span style=&quot;background-color: rgb(255 , 255 , 255) ; font-size: 14px&quot;&gt;[accumulate point to registered customer]&lt;/span&gt;" style="text;html=1;align=center;verticalAlign=middle;resizable=0;points=[];autosize=1;strokeColor=none;fontSize=14;" vertex="1" parent="1">
                    <mxGeometry x="95" y="970" width="270" height="20" as="geometry"/>
                </mxCell>
            </root>
        </mxGraphModel>
    </diagram>
</mxfile>